<svg width="370" height="101" viewBox="0 0 370 101" fill="none" xmlns="http://www.w3.org/2000/svg">
<path d="M0 0H338V100H0V0Z" fill="#292929"/>
<path d="M66.2356 47.0287L49.7126 17L32.9023 47.0287L19.1092 28.2069V62.8333L26.0057 49.7586L49.7126 79.069L73.2759 49.7586L80.6034 62.8333V28.2069L66.2356 47.0287Z" fill="#E8AF5A"/>
<path d="M19.1092 71.7414L27.4425 57.3736L32.1839 63.6954L27.4425 71.7414H19.1092Z" fill="#E8AF5A"/>
<path d="M67.3851 63.6954L72.4138 57.3736L80.6034 71.7414H72.4138L67.3851 63.6954Z" fill="#E8AF5A"/>
<path d="M61.7816 52.9195L50 31.6552L37.7874 52.9195L50 67.7184L61.7816 52.9195Z" fill="#292929"/>
<path d="M105.496 70H99.88V38.32H105.496V70ZM115.288 38.32H121.096L111.88 53.056L121.768 70H115.624L106.504 53.968L115.288 38.32ZM132.478 48.256C131.102 48.256 130.206 49.184 129.79 51.04C129.406 52.864 129.214 55.056 129.214 57.616V70H123.934V45.52L128.35 44.944L128.59 49.264C129.038 47.824 129.822 46.688 130.942 45.856C132.062 44.992 133.358 44.56 134.83 44.56C136.43 44.56 137.694 45.024 138.622 45.952C139.582 46.88 140.062 48.144 140.062 49.744C140.062 52.336 138.814 53.632 136.318 53.632C135.486 53.632 134.846 53.456 134.398 53.104C134.622 52.272 134.734 51.552 134.734 50.944C134.734 49.152 133.982 48.256 132.478 48.256ZM155.879 67.792C155.271 68.912 154.375 69.728 153.191 70.24C152.039 70.784 150.727 71.056 149.255 71.056C147.047 71.056 145.191 70.384 143.687 69.04C142.215 67.696 141.479 65.952 141.479 63.808C141.479 58.624 146.103 56.032 155.351 56.032V51.856C155.351 50.256 155.111 49.072 154.631 48.304C154.151 47.504 153.239 47.104 151.895 47.104C150.775 47.104 149.847 47.408 149.111 48.016C148.375 48.592 148.007 49.408 148.007 50.464C148.007 51.136 148.135 51.856 148.391 52.624C147.943 52.976 147.303 53.152 146.471 53.152C145.319 53.152 144.407 52.864 143.735 52.288C143.063 51.712 142.727 50.88 142.727 49.792C142.727 48.256 143.591 47.008 145.319 46.048C147.047 45.056 149.351 44.56 152.231 44.56C154.343 44.56 156.007 44.88 157.223 45.52C158.439 46.128 159.303 47.088 159.815 48.4C160.359 49.68 160.631 51.408 160.631 53.584V66.064C160.631 67.632 161.127 68.688 162.119 69.232C161.863 69.712 161.479 70.08 160.967 70.336C160.487 70.592 159.927 70.72 159.287 70.72C158.359 70.72 157.591 70.464 156.983 69.952C156.375 69.408 156.007 68.688 155.879 67.792ZM151.127 67.84C152.535 67.84 153.591 67.312 154.295 66.256C154.999 65.168 155.351 63.824 155.351 62.224V58.432C149.943 58.432 147.239 60.16 147.239 63.616C147.239 64.896 147.575 65.92 148.247 66.688C148.951 67.456 149.911 67.84 151.127 67.84ZM167.351 70.576V47.68H163.943V45.52H167.351L167.495 42.928C167.783 37.936 170.631 35.44 176.039 35.44C178.055 35.44 179.783 35.76 181.223 36.4C182.695 37.008 183.431 38.048 183.431 39.52C183.431 40.608 183.095 41.44 182.423 42.016C181.751 42.592 180.839 42.88 179.687 42.88C178.855 42.88 178.215 42.704 177.767 42.352C178.023 41.584 178.151 40.864 178.151 40.192C178.151 39.36 177.943 38.72 177.527 38.272C177.143 37.792 176.551 37.552 175.751 37.552C174.503 37.552 173.655 38.032 173.207 38.992C172.791 39.92 172.583 41.232 172.583 42.928V45.52H177.815V47.68H172.631V70L167.351 70.576ZM178.99 47.68L178.942 46.24C180.382 45.664 181.742 44.896 183.022 43.936C184.334 42.976 185.438 41.92 186.334 40.768H187.822V45.52H192.238V47.68H187.726V65.152C187.726 66.112 187.902 66.832 188.254 67.312C188.606 67.792 189.166 68.096 189.934 68.224C189.774 68.96 189.342 69.552 188.638 70C187.966 70.48 187.182 70.72 186.286 70.72C183.694 70.72 182.398 69.248 182.398 66.304V47.68H178.99ZM215.036 40.72C212.476 40.72 210.748 42 209.852 44.56C208.956 47.088 208.508 50.256 208.508 54.064C208.508 57.968 208.956 61.152 209.852 63.616C210.748 66.08 212.556 67.312 215.276 67.312C216.78 67.312 218.156 67.104 219.404 66.688L219.212 55.456L224.444 54.784V69.088C223.292 69.696 221.82 70.176 220.028 70.528C218.236 70.88 216.604 71.056 215.132 71.056C210.588 71.056 207.34 69.584 205.388 66.64C203.436 63.664 202.46 59.552 202.46 54.304C202.46 49.12 203.484 45.008 205.532 41.968C207.612 38.896 210.924 37.36 215.468 37.36C218.316 37.36 220.62 37.92 222.38 39.04C224.14 40.16 225.02 41.936 225.02 44.368C225.02 45.52 224.684 46.464 224.012 47.2C223.34 47.904 222.428 48.256 221.276 48.256C220.22 48.256 219.388 48 218.78 47.488C219.036 46.784 219.164 45.984 219.164 45.088C219.164 43.712 218.812 42.64 218.108 41.872C217.404 41.104 216.38 40.72 215.036 40.72ZM239.079 44.56C242.663 44.56 245.319 45.728 247.047 48.064C248.775 50.368 249.639 53.488 249.639 57.424C249.639 61.616 248.807 64.944 247.143 67.408C245.479 69.84 242.791 71.056 239.079 71.056C235.431 71.056 232.759 69.888 231.063 67.552C229.399 65.216 228.567 62 228.567 57.904C228.567 53.936 229.431 50.72 231.159 48.256C232.887 45.792 235.527 44.56 239.079 44.56ZM239.079 68.176C241.063 68.176 242.359 67.2 242.967 65.248C243.575 63.296 243.879 60.768 243.879 57.664C243.879 54.816 243.543 52.4 242.871 50.416C242.231 48.432 240.967 47.44 239.079 47.44C235.911 47.44 234.327 50.848 234.327 57.664C234.327 60.768 234.615 63.296 235.191 65.248C235.799 67.2 237.095 68.176 239.079 68.176ZM263.22 44.56C266.804 44.56 269.46 45.728 271.188 48.064C272.916 50.368 273.78 53.488 273.78 57.424C273.78 61.616 272.948 64.944 271.284 67.408C269.62 69.84 266.932 71.056 263.22 71.056C259.572 71.056 256.9 69.888 255.204 67.552C253.54 65.216 252.708 62 252.708 57.904C252.708 53.936 253.572 50.72 255.3 48.256C257.028 45.792 259.668 44.56 263.22 44.56ZM263.22 68.176C265.204 68.176 266.5 67.2 267.108 65.248C267.716 63.296 268.02 60.768 268.02 57.664C268.02 54.816 267.684 52.4 267.012 50.416C266.372 48.432 265.108 47.44 263.22 47.44C260.052 47.44 258.468 50.848 258.468 57.664C258.468 60.768 258.756 63.296 259.332 65.248C259.94 67.2 261.236 68.176 263.22 68.176ZM297.057 66.064C297.057 67.632 297.553 68.688 298.545 69.232C298.289 69.712 297.905 70.08 297.393 70.336C296.913 70.592 296.353 70.72 295.713 70.72C294.785 70.72 294.017 70.464 293.409 69.952C292.801 69.408 292.433 68.688 292.305 67.792C291.793 68.848 290.961 69.648 289.809 70.192C288.689 70.768 287.473 71.056 286.161 71.056C282.897 71.056 280.529 69.808 279.057 67.312C277.585 64.816 276.849 61.616 276.849 57.712C276.849 53.68 277.713 50.48 279.441 48.112C281.201 45.744 283.921 44.56 287.601 44.56C289.137 44.56 290.529 44.768 291.777 45.184V36.4L297.057 35.824V66.064ZM291.777 48.928C290.305 47.936 288.833 47.44 287.361 47.44C285.409 47.44 284.129 48.368 283.521 50.224C282.913 52.08 282.609 54.496 282.609 57.472C282.609 60.32 282.961 62.768 283.665 64.816C284.369 66.832 285.665 67.84 287.553 67.84C288.961 67.84 290.017 67.312 290.721 66.256C291.425 65.168 291.777 63.824 291.777 62.224V48.928ZM311.569 47.104C310.609 47.104 309.841 47.36 309.265 47.872C308.689 48.352 308.401 49.056 308.401 49.984C308.401 51.232 308.817 52.256 309.649 53.056C310.513 53.824 311.825 54.688 313.585 55.648C314.993 56.416 316.113 57.104 316.945 57.712C317.809 58.32 318.545 59.104 319.153 60.064C319.761 60.992 320.065 62.128 320.065 63.472C320.065 65.904 319.185 67.776 317.425 69.088C315.697 70.4 313.489 71.056 310.801 71.056C308.465 71.056 306.497 70.656 304.897 69.856C303.329 69.056 302.545 67.728 302.545 65.872C302.545 64.784 302.881 63.952 303.553 63.376C304.225 62.8 305.137 62.512 306.289 62.512C307.121 62.512 307.761 62.688 308.209 63.04C307.953 63.808 307.825 64.528 307.825 65.2C307.825 66.224 308.145 67.04 308.785 67.648C309.425 68.224 310.289 68.512 311.377 68.512C312.561 68.512 313.457 68.208 314.065 67.6C314.705 66.96 315.025 66.032 315.025 64.816C315.025 63.568 314.593 62.56 313.729 61.792C312.897 60.992 311.601 60.112 309.841 59.152C308.433 58.352 307.297 57.648 306.433 57.04C305.601 56.432 304.881 55.664 304.273 54.736C303.665 53.776 303.361 52.624 303.361 51.28C303.361 49.136 304.225 47.488 305.953 46.336C307.681 45.152 309.777 44.56 312.241 44.56C314.513 44.56 316.369 44.976 317.809 45.808C319.281 46.608 320.017 47.936 320.017 49.792C320.017 50.88 319.665 51.712 318.961 52.288C318.289 52.864 317.377 53.152 316.225 53.152C315.393 53.152 314.753 52.976 314.305 52.624C314.561 51.856 314.689 51.136 314.689 50.464C314.689 49.408 314.417 48.592 313.873 48.016C313.361 47.408 312.593 47.104 311.569 47.104Z" fill="#E8AF5A"/>
</svg>
